#!OML:ASF H:\Terrain\Patient Classification 1\Walking\liu\liu.ASF
:FULLY-SPECIFIED
:DEGREES
1
root 7.465930 15.993700 -36.732101 7.113560 1.314870 -3.667760
lowerback -42.991199 1.894040 9.394010
upperback -15.188600 1.851880 25.570200
thorax 8.450910 0.960327 21.070499
lowerneck -186.578995 -51.741402 -133.375992
upperneck 136.796997 -66.310699 169.235992
head 83.899399 -22.819199 71.702797
rclavicle 0.000000 0.000000
rhumerus -387.687988 174.550995 -841.031006
rradius 561.989014
rwrist -285.695984
rhand -332.015015 -257.513000
rfingers 71.250198
rthumb -64.086998 -556.343994
lclavicle 0.000000 0.000000
lhumerus -359.266998 -29.785500 862.544006
lradius 274.056000
lwrist 73.055702
lhand -133.002991 -230.210999
lfingers 71.250198
lthumb 128.037994 65.662399
rfemur -98.980103 47.265900 301.098999
rtibia 241.197998
rfoot 0.000000 0.000000
rtoes 0.000000
lfemur -406.897003 64.225800 -163.516006
ltibia 439.105988
lfoot -146.186005 83.466705
ltoes -118.487000
2
root 7.469790 15.990900 -36.609901 6.973640 1.176770 -3.427690
lowerback -40.294701 1.247170 6.866170
upperback -17.434099 1.224660 24.094101
thorax 4.658300 0.663449 20.923500
lowerneck -183.092010 -49.471203 -128.660004
upperneck 139.807999 -64.550797 165.981003
head 83.663101 -22.131500 70.022598
rclavicle 0.000000 0.000000
rhumerus -392.962006 174.620987 -844.895996
rradius 569.177002
rwrist -297.835999
rhand -325.088989 -267.041992
rfingers 71.250198
rthumb -57.401001 -566.063965
lclavicle 0.000000 0.000000
lhumerus -366.134979 -30.560801 862.015991
lradius 276.049988
lwrist 73.758995
lhand -132.526993 -236.777985
lfingers 71.250198
lthumb 128.496002 59.067200
rfemur -91.052307 49.933098 298.867004
rtibia 237.929001
rfoot 0.000000 0.000000
rtoes 0.000000
lfemur -406.314026 59.648899 -164.186005
ltibia 417.651001
lfoot -144.395996 77.946198
ltoes -116.513992
3
root 7.468650 15.981700 -36.492199 7.074960 1.020620 -3.421040
lowerback -42.526798 2.084910 5.341390
upperback -17.678301 2.356800 24.355400
thorax 5.610430 1.235550 22.111300
lowerneck -184.858002 -49.243896 -125.804001
upperneck 144.563004 -65.075203 164.309998
head 85.472198 -22.227900 69.003502
rclavicle -0.000000 0.000000
rhumerus -393.658997 173.532013 -844.602966
rradius 576.250000
rwrist -311.520020
rhand -314.625000 -272.738983
rfingers 71.250198
rthumb -47.297203 -572.010986
lclavicle -0.000000 0.000000
lhumerus -365.584991 -30.595100 863.507019
lradius 273.877991
lwrist 70.431801
lhand -128.526001 -238.908005
lfingers 71.250198
lthumb 132.352997 56.690403
rfemur -84.330505 53.581001 299.246002
rtibia 232.639999
rfoot 0.000000 0.000000
rtoes 0.000000
lfemur -409.779022 56.512299 -162.292007
ltibia 399.056030
lfoot -144.266006 72.211800
ltoes -110.793999
4
root 7.474180 15.976900 -36.368900 7.146040 0.803247 -3.687080
lowerback -46.154900 4.734670 8.202820
upperback -17.041700 5.658920 25.822699
thorax 8.185890 2.874270 22.211201
lowerneck -178.820007 -52.516800 -135.750000
upperneck 138.875000 -67.681801 168.043991
head 83.442200 -24.018200 71.553795
rclavicle 0.000000 0.000000
rhumerus -393.616974 171.947006 -841.293030
rradius 580.906006
rwrist -321.972015
rhand -315.154999 -276.026001
rfingers 71.250198
rthumb -47.808998 -575.286011
lclavicle 0.000000 0.000000
lhumerus -364.987000 -37.873901 871.447021
lradius 275.000000
lwrist 72.714699
lhand -119.058998 -234.389008
lfingers 71.250198
lthumb 141.477005 60.594299
rfemur -77.369598 54.200901 302.105988
rtibia 227.500992
rfoot 0.000000 0.000000
rtoes 0.000000
lfemur -411.966003 55.780602 -158.664993
ltibia 379.365997
lfoot -138.623001 72.849205
ltoes -110.212006
5
root 7.487920 15.976100 -36.236801 7.032030 0.509124 -3.741260
lowerback -47.951004 4.510150 8.837890
upperback -15.182900 5.224160 26.442499
thorax 11.111200 2.643600 22.502401
lowerneck -180.594009 -50.876003 -138.694000
upperneck 138.475006 -65.175301 172.352005
head 83.494705 -22.544601 74.008598
rclavicle 0.000000 0.000000
rhumerus -391.152985 176.931000 -842.583008
rradius 585.065002
rwrist -330.862000
rhand -315.934998 -287.916992
rfingers 71.250198
rthumb -48.561802 -587.161011
lclavicle 0.000000 0.000000
lhumerus -366.188019 -42.850700 876.846985
lradius 279.949005
lwrist 78.811996
lhand -117.685005 -225.897003
lfingers 71.250198
lthumb 142.800995 68.993301
rfemur -67.693901 53.977600 302.309998
rtibia 221.287003
rfoot 0.000000 0.000000
rtoes 0.000000
lfemur -410.885010 52.481697 -156.205002
ltibia 360.041016
lfoot -135.117004 75.903198
ltoes -107.221001
6
root 7.500650 15.977800 -36.101898 6.909560 0.143317 -3.598320
lowerback -48.625999 4.060160 7.832700
upperback -14.295799 4.643110 25.465801
thorax 12.418800 2.344830 22.040300
lowerneck -182.380005 -49.028202 -135.630005
upperneck 139.811005 -63.091602 170.942001
head 83.730301 -21.421900 73.288795
rclavicle 0.000000 -0.000000
rhumerus -391.041992 180.191010 -846.809998
rradius 589.744995
rwrist -338.289978
rhand -311.686981 -292.759979
rfingers 71.250198
rthumb -44.460800 -592.093994
lclavicle 0.000000 -0.000000
lhumerus -367.363007 -43.297199 877.260986
lradius 279.917999
lwrist 75.179298
lhand -120.256996 -228.746002
lfingers 71.250198
lthumb 140.321991 66.317101
rfemur -57.366501 54.056503 300.319000
rtibia 214.444000
rfoot 0.000000 0.000000
rtoes 0.000000
lfemur -408.843994 47.543404 -154.143997
ltibia 340.978027
lfoot -139.774002 78.163803
ltoes -106.007996
7
root 7.506240 15.988500 -35.973499 6.868540 -0.176380 -3.570520
lowerback -48.165302 3.368410 6.781460
upperback -14.571100 3.800500 24.583099
thorax 11.905600 1.923620 21.666401
lowerneck -183.535995 -48.006500 -128.619003
upperneck 141.223007 -62.692101 166.240997
head 83.909500 -21.194698 70.422699
rclavicle 0.000000 -0.000000
rhumerus -392.285004 182.880005 -852.401978
rradius 593.562988
rwrist -342.626007
rhand -312.078979 -293.832001
rfingers 71.250198
rthumb -44.839203 -593.158020
lclavicle 0.000000 -0.000000
lhumerus -369.393005 -42.506199 875.249023
lradius 279.725006
lwrist 70.064804
lhand -117.544006 -234.181000
lfingers 71.250198
lthumb 142.936996 60.699001
rfemur -48.426201 56.126198 299.830994
rtibia 208.220993
rfoot 0.000000 0.000000
rtoes 0.000000
lfemur -407.523987 43.544697 -150.690002
ltibia 321.432983
lfoot -141.121002 80.847900
ltoes -122.686996
